# xmcd
#
# Track frame offsets: 
#        150
#        22372
#        37889
#        59848
#        73951
#        98893
#        126883
#        138866
#        164881
#        181337
#        206962
#        223607
#        240859
#        250181
#
# Disc length: 3635 seconds
#
# Revision: 0
# Processed by: cddbd v1.5.2PL0 Copyright (c) Steve Scherf et al.
# Submitted via: ExactAudioCopy v0.95a5
#
DISCID=dc0e310e
DTITLE=Various Artist - BLUE SAX! LIVE! SEASON 2008 - 09 cd1
DYEAR=2009
DGENRE=Blues
TTITLE0=Bluesville - The Sky Is Crying
TTITLE1=Nebo and Downstrokes - Hideaway
TTITLE2=Partet - Nothing But The Blues
TTITLE3=Telefon Blues Band - Oh, Well
TTITLE4=Black Cat Bone - The Weight
TTITLE5=Small House Brown - My Baby
TTITLE6=Two For Blues - Keep On Truckin'
TTITLE7=Ana B. and Torreadores - Spoonfull
TTITLE8=Greenhouse Blues Band - Ophelia
TTITLE9=Puzzle Blues Band feat. Nebo - Need Your Love So Bad
TTITLE10=Tony Lee King - Suspicious Minds
TTITLE11=Harpoon Blues Band - I Don't Want To
TTITLE12=The Red Roosters - Seventh Sun
TTITLE13=Puzzle Blues Band  - One Way Out
EXTD=
EXTT0=
EXTT1=
EXTT2=
EXTT3=
EXTT4=
EXTT5=
EXTT6=
EXTT7=
EXTT8=
EXTT9=
EXTT10=
EXTT11=
EXTT12=
EXTT13=
PLAYORDER=
